<svg id="Optimiser_RGB-01" xmlns="http://www.w3.org/2000/svg" width="92" height="45" viewBox="0 0 92 45">
  <g id="Group_5" data-name="Group 5" transform="translate(18.373 18.007)">
    <path id="Path_9" data-name="Path 9" d="M284.277,159.963H279.8a.519.519,0,1,0,0,1.037h1.709v7.268a.523.523,0,0,0,1.046,0V161h1.722a.519.519,0,1,0,0-1.037Z" transform="translate(-258.552 -159.858)" fill="#0e273a"/>
    <path id="Path_10" data-name="Path 10" d="M329.421,167.972v-7.848a.523.523,0,0,1,1.045,0v7.848a.523.523,0,0,1-1.045,0Z" transform="translate(-300.04 -159.562)" fill="#0e273a"/>
    <path id="Path_11" data-name="Path 11" d="M365.11,167.951l-1.626-7.865a.535.535,0,0,0-1.01-.072l-2.229,6.45-2.229-6.45a.535.535,0,0,0-1.01.072l-1.626,7.865c0,.024-.013.012-.013.085a.517.517,0,0,0,.53.532.525.525,0,0,0,.516-.411l1.232-6.006,2.107,6.065a.515.515,0,0,0,.494.351.522.522,0,0,0,.491-.351h0l2.105-6.065,1.232,6.006a.526.526,0,0,0,.517.411.517.517,0,0,0,.531-.532C365.122,167.963,365.11,167.975,365.11,167.951Z" transform="translate(-321.504 -159.628)" fill="#0e273a"/>
    <path id="Path_12" data-name="Path 12" d="M432.233,167.972v-7.848a.523.523,0,0,1,1.046,0v7.848a.523.523,0,0,1-1.046,0Z" transform="translate(-385.092 -159.562)" fill="#0e273a"/>
    <path id="Path_13" data-name="Path 13" d="M458.534,167.511a.5.5,0,0,1,.528-.52c.47,0,.677.568,1.895.568.912,0,2.043-.4,2.043-1.524,0-2.288-4.318-1.4-4.318-4.19,0-1.355,1.242-2.118,2.608-2.118a3.507,3.507,0,0,1,2.067.618.516.516,0,0,1,.221.411.53.53,0,0,1-.836.424,2.306,2.306,0,0,0-1.365-.411c-.837,0-1.638.3-1.638,1.09,0,1.864,4.306.968,4.306,4.177,0,1.73-1.573,2.554-3.088,2.554C460.367,168.588,458.534,168.262,458.534,167.511Z" transform="translate(-406.85 -159.661)" fill="#0e273a"/>
    <path id="Path_14" data-name="Path 14" d="M511.736,164.777h2.718a.512.512,0,1,0,0-1.025h-2.718v-2.9h2.718a.512.512,0,1,0,0-1.024h-3.235a.519.519,0,0,0-.528.518v7.81a.526.526,0,0,0,.528.517h3.235a.513.513,0,1,0,0-1.025h-2.718Z" transform="translate(-449.997 -159.743)" fill="#0e273a"/>
    <path id="Path_15" data-name="Path 15" d="M163.909,168.315a4.487,4.487,0,1,1,4.578-4.485A4.538,4.538,0,0,1,163.909,168.315Zm0-7.947a3.462,3.462,0,1,0,3.533,3.462A3.5,3.5,0,0,0,163.909,160.367Z" transform="translate(-159.33 -159.343)" fill="#0e273a"/>
    <path id="Path_16" data-name="Path 16" d="M557.983,164.765a2.474,2.474,0,0,0-.23-4.942h-2.225a.524.524,0,0,0-.517.518v7.81a.523.523,0,0,0,1.046,0v-3.375h.654l2.63,3.676a.5.5,0,0,0,.418.216.527.527,0,0,0,.53-.517.493.493,0,0,0-.1-.29Zm-1.926-3.906h1.7a1.447,1.447,0,1,1,0,2.892h-1.7Z" transform="translate(-486.662 -159.742)" fill="#0e273a"/>
    <path id="Path_17" data-name="Path 17" d="M234.041,159.823h-2.177a.526.526,0,0,0-.529.518v7.81a.529.529,0,0,0,1.058,0v-2.725h1.648a2.8,2.8,0,1,0,0-5.6Zm0,4.579h-1.648v-3.555h1.648a1.778,1.778,0,1,1,0,3.555Z" transform="translate(-218.897 -159.742)" fill="#0e273a"/>
  </g>
  <g id="Group_6" data-name="Group 6" transform="translate(0 0)">
    <path id="Path_18" data-name="Path 18" d="M109.235,65.53a2,2,0,0,0,1.393.546,2.074,2.074,0,0,0,.615-.1l.937,1.1a2.09,2.09,0,0,0,1.584.7,2,2,0,0,0,.984-.25l.027-.016.564.956a.349.349,0,0,0,.212.16.358.358,0,0,0,.266-.035,8.131,8.131,0,0,1,2.631-.933.35.35,0,0,0,.226-.141.336.336,0,0,0,.058-.256L117.4,59.881a1.89,1.89,0,0,0,1.236-1.9l-.314-3.482c-.086-.953-.753-1.657-1.506-1.559a1.132,1.132,0,0,0-.758.46,1.843,1.843,0,0,0-.282,1.428l.809,4.475a1.225,1.225,0,0,1-1.025-.85l-.1-.355a1.609,1.609,0,0,0-1.568-1.2,1.717,1.717,0,0,0-.534.087l-.518-1.39a1.556,1.556,0,0,0-1.464-1.031,1.66,1.66,0,0,0-.76.187l-2.783,1.421a1.549,1.549,0,0,0-.823,1.006,1.519,1.519,0,0,0,.258,1.266l2.014,2.813a1.981,1.981,0,0,0,1.6.792,1.907,1.907,0,0,0,.9-.22l.049-.025a1.827,1.827,0,0,0,.787-2.363l-.159-.334a.9.9,0,0,1-.027-.749.923.923,0,0,1,.512-.491l2.66,7.142a1.36,1.36,0,0,1-.57,1.568l-.8-1.353a1.572,1.572,0,0,0-1.359-.791,1.625,1.625,0,0,0-.982.336l-.466.35-3.035-3.575a1.954,1.954,0,0,0-1.4-.759.936.936,0,0,0-.638.231.911.911,0,0,0-.294.679,1.958,1.958,0,0,0,.651,1.359Zm7.384-11.724a.426.426,0,0,1,.286-.185.359.359,0,0,1,.047,0c.282,0,.618.36.671.943l.314,3.482a1.2,1.2,0,0,1-.665,1.143l-.809-4.475A1.19,1.19,0,0,1,116.619,53.806Zm-4.837,4.3a1.568,1.568,0,0,0,.04,1.3l.159.334a1.152,1.152,0,0,1-.485,1.47l-.049.025a1.2,1.2,0,0,1-.568.138,1.269,1.269,0,0,1-1.025-.5l-2.014-2.813a.855.855,0,0,1-.151-.71.872.872,0,0,1,.467-.561l2.782-1.421a.957.957,0,0,1,.437-.109.854.854,0,0,1,.807.581l.517,1.388A1.611,1.611,0,0,0,111.782,58.1Zm4.475,6.677L113.6,57.634a1,1,0,0,1,.3-.045.92.92,0,0,1,.893.688l.1.355A1.921,1.921,0,0,0,116.708,60l1.276,7.056a8.828,8.828,0,0,0-2.21.783l-.392-.665A2.046,2.046,0,0,0,116.257,64.779Zm-3.94.537a.923.923,0,0,1,.556-.194.866.866,0,0,1,.753.449l.8,1.353-.028.016a1.283,1.283,0,0,1-.633.158,1.4,1.4,0,0,1-1.046-.451l-.846-1Zm-5.495-3.791a.225.225,0,0,1,.165-.051,1.3,1.3,0,0,1,.865.513l2.887,3.4a1.315,1.315,0,0,1-1.01-.341L107.2,62.572a1.325,1.325,0,0,1-.446-.86A.249.249,0,0,1,106.822,61.524Z" transform="translate(-96.885 -52.933)" fill="#00a1df"/>
    <path id="Path_19" data-name="Path 19" d="M185.452,68.837l1.6.423-.323.872a.341.341,0,0,0,.209.439,8.069,8.069,0,0,1,2.42,1.372.355.355,0,0,0,.493-.042l2.2-2.577a1.4,1.4,0,0,0,.338-1.216,1.421,1.421,0,0,0-.831-.958l-.435-.2,4.065-6.97a1.47,1.47,0,0,0,.129-1.275,1.512,1.512,0,0,0-.94-.889l-4.8-1.708a1.677,1.677,0,0,0-.565-.1,1.483,1.483,0,0,0-1.469,1.251l-.3,1.671-1.624-.281a1.552,1.552,0,0,0-1.36.4,1.5,1.5,0,0,0-.439,1.084l0,6.632A2.276,2.276,0,0,0,185.452,68.837Zm1.615-4.928.749-4.181,1.624.281a.837.837,0,0,1,.6.384.8.8,0,0,1,.042.7l-1.707,4.6-.468-.214A1.553,1.553,0,0,1,187.067,63.909Zm.9,4.885.8-2.16,1.373.626-.5.856a1.6,1.6,0,0,1-1.34.72,1.281,1.281,0,0,1-.326-.041Zm3.742-.536a.72.72,0,0,1-.192.626l-1.984,2.32a8.759,8.759,0,0,0-2.032-1.153l.226-.611.065.017a2,2,0,0,0,.509.064,2.3,2.3,0,0,0,1.947-1.065l.529-.907.489.222A.732.732,0,0,1,191.712,68.258ZM188.237,57.38a.78.78,0,0,1,.78-.684.97.97,0,0,1,.326.059l4.8,1.708a.832.832,0,0,1,.522.481.809.809,0,0,1-.08.7l-4.094,7.02-1.482-.675,1.728-4.661a1.465,1.465,0,0,0-.094-1.277,1.523,1.523,0,0,0-1.082-.716l-1.624-.282Zm-3.478,2.151a.8.8,0,0,1,.568-.22,1.04,1.04,0,0,1,.176.015l1.624.281-.749,4.183A2.221,2.221,0,0,0,187.61,66.1l.524.24-.842,2.27-1.658-.438a1.572,1.572,0,0,1-1.1-1.412l0-6.632A.828.828,0,0,1,184.759,59.532Z" transform="translate(-161.222 -55.49)" fill="#00a1df"/>
    <path id="Path_20" data-name="Path 20" d="M196.084,228.071l.8,1.352a1.573,1.573,0,0,0,1.36.791,1.626,1.626,0,0,0,.982-.335l.466-.349,3.034,3.575a1.953,1.953,0,0,0,1.4.759.936.936,0,0,0,.637-.231.912.912,0,0,0,.295-.679,1.958,1.958,0,0,0-.65-1.359l-2.528-2.474a2,2,0,0,0-1.393-.546,2.076,2.076,0,0,0-.616.1l-.936-1.1a2.086,2.086,0,0,0-1.583-.7,2,2,0,0,0-.984.25l-.029.016-.565-.957a.353.353,0,0,0-.478-.125,8.15,8.15,0,0,1-2.631.932.351.351,0,0,0-.226.141.336.336,0,0,0-.058.256l1.336,7.389a1.893,1.893,0,0,0-1.235,1.9l.314,3.482a1.556,1.556,0,0,0,1.367,1.566,1.085,1.085,0,0,0,.138-.009,1.129,1.129,0,0,0,.758-.458,1.841,1.841,0,0,0,.281-1.429l-.809-4.475a1.224,1.224,0,0,1,1.025.851l.1.355a1.608,1.608,0,0,0,1.566,1.195,1.716,1.716,0,0,0,.536-.088l.517,1.391a1.559,1.559,0,0,0,1.465,1.031,1.66,1.66,0,0,0,.76-.187l2.784-1.421a1.552,1.552,0,0,0,.824-1.008,1.518,1.518,0,0,0-.259-1.264l-2.014-2.814a1.985,1.985,0,0,0-1.6-.791,1.916,1.916,0,0,0-.909.226l-.036.02a1.825,1.825,0,0,0-.788,2.364l.159.333a.9.9,0,0,1,.026.748.923.923,0,0,1-.513.491l-2.66-7.14A1.361,1.361,0,0,1,196.084,228.071Zm5.3,1.535,2.528,2.473a1.324,1.324,0,0,1,.445.859.251.251,0,0,1-.068.188c-.15.134-.627.011-1.029-.461l-2.887-3.4A1.316,1.316,0,0,1,201.386,229.606Zm-4.669-1.893a1.288,1.288,0,0,1,.634-.159A1.374,1.374,0,0,1,198.4,228l.846,1-.444.333a.923.923,0,0,1-.556.194.879.879,0,0,1-.754-.449l-.8-1.352Zm-2.222,13.134a.424.424,0,0,1-.285.184.362.362,0,0,1-.047,0c-.281,0-.618-.36-.67-.941l-.314-3.482a1.209,1.209,0,0,1,.664-1.146l.809,4.478A1.207,1.207,0,0,1,194.495,240.847Zm4.838-4.3a1.568,1.568,0,0,0-.039-1.3l-.159-.333a1.154,1.154,0,0,1,.5-1.477l.036-.02a1.2,1.2,0,0,1,.565-.137,1.271,1.271,0,0,1,1.027.5l2.014,2.814a.853.853,0,0,1,.152.708.874.874,0,0,1-.468.563l-2.784,1.421a.955.955,0,0,1-.437.109.855.855,0,0,1-.808-.581l-.516-1.39A1.61,1.61,0,0,0,199.333,236.548Zm-4.476-6.675,2.661,7.144a1,1,0,0,1-.3.046.919.919,0,0,1-.891-.688l-.1-.354a1.92,1.92,0,0,0-1.826-1.37l-1.275-7.057a8.851,8.851,0,0,0,2.21-.782l.393.666A2.047,2.047,0,0,0,194.857,229.873Z" transform="translate(-168.295 -196.719)" fill="#00a1df"/>
    <path id="Path_21" data-name="Path 21" d="M130.9,224.326l-1.6-.423.323-.874a.341.341,0,0,0-.209-.439,8.044,8.044,0,0,1-2.42-1.373.356.356,0,0,0-.255-.079.352.352,0,0,0-.238.121l-2.206,2.58a1.394,1.394,0,0,0-.338,1.214,1.423,1.423,0,0,0,.832.96l.434.2-4.064,6.97a1.471,1.471,0,0,0-.129,1.275,1.512,1.512,0,0,0,.94.888l4.8,1.708a1.678,1.678,0,0,0,.562.1,1.485,1.485,0,0,0,1.471-1.252l.3-1.671,1.625.282a1.75,1.75,0,0,0,.3.026,1.47,1.47,0,0,0,1.5-1.506l0-6.631A2.243,2.243,0,0,0,130.9,224.326Zm-1.615,4.928-.75,4.18-1.623-.28a.836.836,0,0,1-.6-.385.8.8,0,0,1-.042-.7l1.706-4.6.468.213A1.555,1.555,0,0,1,129.289,229.254Zm-.9-4.885-.8,2.161-1.374-.627.5-.857a1.6,1.6,0,0,1,1.34-.721,1.274,1.274,0,0,1,.326.041Zm-3.743.535a.718.718,0,0,1,.191-.625l1.986-2.322a8.731,8.731,0,0,0,2.032,1.153l-.227.612-.065-.017a1.991,1.991,0,0,0-.509-.065,2.3,2.3,0,0,0-1.947,1.066l-.53.906-.488-.222A.733.733,0,0,1,124.643,224.9Zm3.475,10.877a.781.781,0,0,1-.782.685.973.973,0,0,1-.324-.058l-4.8-1.708a.832.832,0,0,1-.522-.481.809.809,0,0,1,.079-.7l4.093-7.02,1.483.677-1.727,4.659a1.464,1.464,0,0,0,.094,1.276,1.522,1.522,0,0,0,1.082.717l1.623.28Zm3.477-2.15a.843.843,0,0,1-.742.2l-1.626-.282.75-4.181a2.224,2.224,0,0,0-1.232-2.315l-.524-.238.842-2.271,1.658.438a1.571,1.571,0,0,1,1.1,1.411l0,6.631A.827.827,0,0,1,131.6,233.631Z" transform="translate(-109.201 -192.673)" fill="#00a1df"/>
    <path id="Path_22" data-name="Path 22" d="M57.318,128.623l1.705.294-.287,1.592a1.47,1.47,0,0,0,.319,1.24,1.535,1.535,0,0,0,1.19.521h0l6.769,0a2.278,2.278,0,0,0,2.116-1.589l.433-1.569.89.316a.355.355,0,0,0,.119.021.35.35,0,0,0,.329-.226,7.808,7.808,0,0,1,1.4-2.37.338.338,0,0,0-.043-.483l-2.631-2.159a1.5,1.5,0,0,0-.957-.361,1.393,1.393,0,0,0-1.262.844l-.2.426-7.115-3.982a1.643,1.643,0,0,0-.8-.213,1.507,1.507,0,0,0-1.413,1.009l-1.743,4.7a1.466,1.466,0,0,0,.094,1.276A1.525,1.525,0,0,0,57.318,128.623ZM69.09,128.2l0,.006-2.205-.784.639-1.345.875.491A1.534,1.534,0,0,1,69.09,128.2Zm-3.163-.39-.218.459a1.181,1.181,0,0,1-.1.173,1.663,1.663,0,0,1-1.3.665,1.232,1.232,0,0,1-.209-.017l-4.269-.735.286-1.59a.782.782,0,0,1,.782-.686.97.97,0,0,1,.325.058Zm2.53,2.684a1.6,1.6,0,0,1-1.441,1.082l-6.769,0v0a.842.842,0,0,1-.655-.277.806.806,0,0,1-.165-.681l.287-1.592,4.269.735a1.958,1.958,0,0,0,.329.028h0a2.394,2.394,0,0,0,1.579-.631,1.991,1.991,0,0,0,.454-.6l.243-.513,2.319.824Zm-.412-5.519a.7.7,0,0,1,.628-.448.807.807,0,0,1,.508.2l2.368,1.944a8.476,8.476,0,0,0-1.176,1.99l-.624-.222.017-.062a2.2,2.2,0,0,0-1.021-2.406l-.927-.519ZM56.8,126.865l1.743-4.7a.806.806,0,0,1,.756-.557.919.919,0,0,1,.45.123l7.165,4.011-.689,1.452L61.466,125.5a1.68,1.68,0,0,0-.564-.1,1.486,1.486,0,0,0-1.471,1.252l-.286,1.59-1.706-.294a.836.836,0,0,1-.6-.384A.8.8,0,0,1,56.8,126.865Z" transform="translate(-55.509 -109.416)" fill="#00a1df"/>
    <path id="Path_23" data-name="Path 23" d="M66.287,199.687l1.125-.917a2.022,2.022,0,0,0,.458-2.515l-.016-.028.977-.554a.339.339,0,0,0,.127-.469,7.737,7.737,0,0,1-.952-2.576.349.349,0,0,0-.405-.278l-7.541,1.309a1.922,1.922,0,0,0-1.94-1.211l-3.553.307a1.928,1.928,0,0,0-1.335.638,1.09,1.09,0,0,0-.256.838,1.4,1.4,0,0,0,1.528,1.052,2.33,2.33,0,0,0,.4-.035l4.569-.791a1.219,1.219,0,0,1-.868,1l-.365.1a1.623,1.623,0,0,0-1.039.807,1.564,1.564,0,0,0-.091,1.253l-1.417.506a1.56,1.56,0,0,0-.951.892,1.515,1.515,0,0,0,.087,1.287l1.452,2.725a1.558,1.558,0,0,0,1.388.849,1.638,1.638,0,0,0,.93-.3l2.871-1.972a1.9,1.9,0,0,0,.582-2.446l-.025-.046a1.9,1.9,0,0,0-1.646-.937,1.836,1.836,0,0,0-.767.164l-.34.156a1,1,0,0,1-.416.093.921.921,0,0,1-.849-.568l7.29-2.6a1.222,1.222,0,0,1,.413-.069,1.417,1.417,0,0,1,1.186.627l-1.381.781a1.548,1.548,0,0,0-.778,1.042,1.52,1.52,0,0,0,.313,1.251l.358.458-3.649,2.973a1.963,1.963,0,0,0-.774,1.3.907.907,0,0,0,.234.7.956.956,0,0,0,.719.289,2.056,2.056,0,0,0,1.361-.637l2.525-2.477A1.957,1.957,0,0,0,66.287,199.687Zm-11.506-5.113a1.614,1.614,0,0,1-.277.024c-.44,0-.8-.2-.835-.457a.412.412,0,0,1,.108-.319,1.264,1.264,0,0,1,.851-.384l3.553-.307c.032,0,.064,0,.1,0a1.239,1.239,0,0,1,1.077.655Zm4.077,4.7h0a1.7,1.7,0,0,0,.713-.158l.34-.156a1.128,1.128,0,0,1,.471-.1,1.189,1.189,0,0,1,1.031.579l.025.046a1.225,1.225,0,0,1-.369,1.558L58.2,203.02a.933.933,0,0,1-.529.171.868.868,0,0,1-.768-.481l-1.451-2.725a.851.851,0,0,1-.055-.722.878.878,0,0,1,.538-.5l1.417-.506A1.615,1.615,0,0,0,58.858,199.278Zm6.854-4.612a1.936,1.936,0,0,0-.653.11l-7.294,2.606a.9.9,0,0,1,.056-.7.934.934,0,0,1,.6-.461l.365-.1a1.9,1.9,0,0,0,1.4-1.788l7.2-1.251a8.4,8.4,0,0,0,.8,2.164l-.68.385A2.112,2.112,0,0,0,65.712,194.666Zm-.287,3.269a.872.872,0,0,1,.442-.582l1.381-.782.016.028a1.34,1.34,0,0,1-.3,1.645l-1.017.829-.341-.436A.856.856,0,0,1,65.425,197.935Zm-.094,3.237-2.525,2.477a1.393,1.393,0,0,1-.866.436.27.27,0,0,1-.2-.067.248.248,0,0,1-.051-.193,1.327,1.327,0,0,1,.523-.816l3.472-2.829A1.245,1.245,0,0,1,65.332,201.172Z" transform="translate(-52.967 -168.754)" fill="#00a1df"/>
  </g>
</svg>
